<svg xmlns="http://www.w3.org/2000/svg" xmlns:xlink="http://www.w3.org/1999/xlink" width="500" zoomAndPan="magnify" viewBox="0 0 375 374.999991" height="500" preserveAspectRatio="xMidYMid meet" version="1.0"><defs><g/><clipPath id="ea297136e9"><path d="M 121.480469 70 L 253 70 L 253 288.777344 L 121.480469 288.777344 Z M 121.480469 70 " clip-rule="nonzero"/></clipPath><clipPath id="1ac4708765"><path d="M 20.363281 184.835938 L 351.167969 184.835938 L 351.167969 237.261719 L 20.363281 237.261719 Z M 20.363281 184.835938 " clip-rule="nonzero"/></clipPath></defs><g clip-path="url(#ea297136e9)"><path fill="#000000" d="M 251.320312 267.664062 C 250.113281 265.304688 245.773438 261.164062 243.222656 257.082031 C 240.671875 253 237.105469 247.964844 234.742188 242.734375 C 232.378906 237.507812 231.105469 232.089844 226.324219 228.011719 C 221.542969 223.933594 218.097656 219.019531 217.074219 214.242188 C 216.054688 209.460938 212.292969 202.894531 209.417969 198.171875 C 206.550781 193.457031 206.296875 188.484375 205.019531 186.378906 C 203.746094 184.273438 199.792969 180.640625 198.515625 178.15625 C 197.242188 175.667969 197.308594 169.292969 197.878906 165.980469 C 198.453125 162.664062 200.046875 156.484375 199.085938 152.722656 C 198.132812 148.957031 194.175781 142.96875 192.902344 142.96875 C 191.628906 142.96875 191.628906 142.96875 191.628906 142.96875 C 191.628906 142.96875 192.203125 141.53125 192.203125 141.089844 C 192.203125 140.640625 193.320312 140.136719 193.320312 139.753906 C 193.320312 139.367188 191.949219 137.140625 191.949219 136.691406 C 191.949219 136.246094 192.96875 132.417969 192.617188 131.210938 C 192.617188 131.210938 197.371094 128.246094 197.242188 127 C 197.113281 125.753906 191.691406 124.703125 191.691406 124.703125 C 191.691406 124.703125 189.460938 118.039062 186.304688 116.703125 C 183.148438 115.363281 176.132812 115.777344 173.742188 117.371094 C 171.347656 118.964844 167.96875 121.800781 167.429688 124.539062 C 166.886719 127.28125 169.421875 135.316406 169.421875 135.316406 C 169.421875 135.316406 166.453125 135.410156 164.832031 136.175781 C 163.203125 136.945312 161.242188 135.75 159.421875 135.75 C 157.609375 135.75 153.589844 136.132812 151.097656 137.898438 C 148.609375 139.667969 146.074219 139.1875 145.40625 139.859375 C 144.738281 140.53125 143.324219 140.796875 143.066406 140.53125 C 142.804688 140.269531 142.394531 137.898438 140.53125 137.039062 C 140.53125 137.039062 142.539062 129.960938 146.558594 122.503906 C 150.578125 115.042969 161.785156 91.074219 163.441406 87.757812 C 165.101562 84.445312 169.121094 75.132812 169.121094 75.132812 C 169.121094 75.132812 169.824219 73.058594 167.050781 71.5 C 164.210938 69.90625 162.203125 72.453125 162.203125 72.453125 C 162.203125 72.453125 151.199219 99.8125 149.027344 104.722656 C 146.859375 109.628906 142.554688 122.695312 140.53125 126.714844 C 138.503906 130.734375 135.765625 135.960938 135.765625 135.960938 C 135.765625 135.960938 133.929688 135.5625 133.210938 136.28125 C 132.492188 137 132.636719 137.808594 132.636719 137.808594 C 132.636719 137.808594 131.679688 137.808594 131.246094 138.621094 C 130.816406 139.433594 131.246094 140.152344 131.246094 140.152344 C 131.246094 140.152344 130.242188 140.246094 129.957031 141.105469 C 129.671875 141.964844 130.242188 142.300781 130.242188 142.300781 C 130.242188 142.300781 129.140625 142.632812 129.140625 144.164062 C 129.140625 144.164062 127.613281 143.921875 127.328125 145.792969 C 127.328125 145.792969 125.988281 147.128906 126.273438 148.324219 C 126.273438 148.324219 125.363281 149.234375 125.746094 150.472656 C 125.746094 150.472656 124.433594 153.222656 125.652344 154.441406 C 125.652344 154.441406 125.53125 155.421875 125.9375 155.828125 C 125.9375 155.828125 125.136719 156.832031 125.136719 157.742188 C 125.136719 158.652344 126.5625 159.128906 127.375 159.511719 C 128.1875 159.898438 130.535156 160.324219 130.960938 158.988281 C 130.960938 158.988281 139.8125 164.484375 143.351562 167.066406 C 146.886719 169.648438 152.726562 172.851562 157.746094 173.953125 C 157.746094 173.953125 157.890625 179.164062 160.710938 183.132812 C 163.535156 187.101562 164.300781 187.820312 163.914062 188.917969 C 163.53125 190.019531 162.242188 193.699219 162.242188 196.136719 C 162.242188 198.578125 159.710938 204.503906 158.65625 206.417969 C 157.601562 208.328125 151.769531 218.222656 151.769531 220.519531 C 151.769531 222.816406 151.339844 228.410156 150.429688 230.464844 C 149.519531 232.519531 140.289062 243.183594 138.855469 246.816406 C 137.417969 250.453125 133.78125 264.125 133.78125 265.753906 C 133.78125 267.378906 134.164062 267.855469 134.164062 267.855469 C 134.164062 267.855469 132.535156 270.53125 131.390625 271.683594 C 130.242188 272.828125 129.574219 271.207031 129.09375 272.828125 C 128.617188 274.457031 129.378906 276.847656 129.378906 276.847656 C 129.378906 276.847656 127.226562 279.476562 125.839844 280.863281 C 124.453125 282.25 122.15625 283.730469 121.820312 285.550781 C 121.488281 287.371094 124.832031 288.660156 126.796875 288.660156 C 128.757812 288.660156 132.203125 287.371094 133.25 287.371094 C 134.304688 287.371094 137.101562 287.296875 137.648438 286.75 C 138.199219 286.199219 140.660156 279.722656 140.660156 278.238281 C 140.660156 276.757812 140.585938 270.710938 140.992188 270.300781 C 141.402344 269.894531 142.90625 270.683594 143.484375 270.109375 C 144.058594 269.535156 152.335938 255.71875 154.054688 253.996094 C 155.777344 252.277344 156.640625 245.296875 158.9375 241.375 C 161.234375 237.453125 167.453125 231.90625 171.566406 226.457031 C 175.679688 221.007812 184.003906 211.25 186.105469 211.25 C 188.210938 211.25 193.375 217.558594 195.191406 219.378906 C 197.007812 221.195312 205.332031 228.371094 208.011719 229.800781 C 210.6875 231.238281 213.945312 235.347656 214.898438 237.640625 C 215.855469 239.9375 221.503906 246.054688 223.511719 248.0625 C 225.515625 250.070312 229.125 253.703125 230.398438 255.9375 C 231.671875 258.167969 231.609375 261.417969 234.988281 265.945312 C 238.367188 270.46875 240.664062 275.503906 242.515625 277.355469 C 244.363281 279.203125 249.148438 278.628906 251.316406 277.355469 C 253.492188 276.085938 252.539062 270.027344 251.320312 267.664062 Z M 146.414062 157.554688 C 143.113281 155.5 142.015625 154.640625 142.015625 154.640625 C 142.015625 154.640625 144.167969 154.210938 145.605469 154.640625 C 147.039062 155.070312 146.992188 155.117188 148.519531 155.117188 C 150.050781 155.117188 153.160156 156.453125 153.160156 156.453125 C 153.160156 156.453125 153.828125 160.089844 154.261719 161.285156 C 154.257812 161.285156 149.71875 159.609375 146.414062 157.554688 Z M 146.414062 157.554688 " fill-opacity="1" fill-rule="nonzero"/></g><g clip-path="url(#1ac4708765)"><path fill="#ffffff" d="M 20.363281 184.835938 L 351.011719 184.835938 L 351.011719 237.484375 L 20.363281 237.484375 Z M 20.363281 184.835938 " fill-opacity="1" fill-rule="nonzero"/></g><g fill="#000000" fill-opacity="1"><g transform="translate(11.577231, 230.641384)"><g><path d="M 26.527344 -19.535156 C 29.121094 -21.335938 30.707031 -24.300781 30.707031 -27.480469 C 30.707031 -32.933594 25.945312 -37.007812 19.535156 -37.007812 L 4.234375 -37.007812 L 4.234375 0.0546875 L 19.960938 0.0546875 C 26.421875 0.0546875 31.660156 -4.710938 31.660156 -10.640625 C 31.660156 -14.613281 29.753906 -17.789062 26.527344 -19.535156 Z M 22.925781 -26.261719 C 22.925781 -23.929688 21.285156 -22.289062 18.796875 -22.289062 L 12.070312 -22.289062 L 12.070312 -30.179688 L 18.796875 -30.179688 C 21.285156 -30.179688 22.925781 -28.589844 22.925781 -26.261719 Z M 19.21875 -7.304688 L 12.070312 -7.304688 L 12.070312 -15.617188 L 19.21875 -15.617188 C 21.867188 -15.617188 23.613281 -13.871094 23.613281 -11.488281 C 23.613281 -9.054688 21.867188 -7.304688 19.21875 -7.304688 Z M 19.21875 -7.304688 "/></g></g></g><g fill="#000000" fill-opacity="1"><g transform="translate(45.559815, 230.641384)"><g><path d="M 28.800781 0 L 37.539062 0 L 22.554688 -37.0625 L 14.984375 -37.0625 L 0.421875 0 L 8.949219 0 L 11.488281 -6.988281 L 26.207031 -6.988281 Z M 18.847656 -27.265625 L 23.71875 -13.976562 L 13.976562 -13.976562 Z M 18.847656 -27.265625 "/></g></g></g><g fill="#000000" fill-opacity="1"><g transform="translate(83.565256, 230.641384)"><g><path d="M 16.519531 0.742188 C 24.195312 0.742188 30.550781 -3.125 30.550781 -11.117188 C 30.550781 -19.429688 23.457031 -21.179688 17.84375 -22.609375 C 13.871094 -23.5625 10.695312 -24.355469 10.695312 -26.949219 C 10.695312 -29.386719 13.289062 -30.496094 15.882812 -30.496094 C 18.902344 -30.496094 21.550781 -29.015625 21.550781 -25.785156 L 29.4375 -25.785156 C 29.4375 -33.195312 24.621094 -37.75 16.09375 -37.75 C 7.890625 -37.75 2.648438 -33.726562 2.648438 -26.632812 C 2.648438 -18.636719 9.425781 -16.996094 15.035156 -15.617188 C 19.0625 -14.71875 22.449219 -13.925781 22.449219 -11.011719 C 22.449219 -8.257812 19.484375 -6.671875 16.464844 -6.671875 C 13.183594 -6.671875 10.21875 -8.417969 10.21875 -11.964844 L 2.117188 -11.964844 C 2.117188 -4.023438 7.996094 0.742188 16.519531 0.742188 Z M 16.519531 0.742188 "/></g></g></g><g fill="#000000" fill-opacity="1"><g transform="translate(116.330402, 230.641384)"><g><path d="M 12.230469 -7.414062 L 12.230469 -15.035156 L 25.097656 -15.035156 L 25.097656 -22.289062 L 12.230469 -22.289062 L 12.230469 -29.648438 L 26.472656 -29.648438 L 26.472656 -37.0625 L 4.234375 -37.0625 L 4.234375 0 L 27.054688 0 L 27.054688 -7.414062 Z M 12.230469 -7.414062 "/></g></g></g><g fill="#000000" fill-opacity="1"><g transform="translate(145.919605, 230.641384)"><g><path d="M 24.621094 0 L 33.566406 0 L 25.359375 -13.976562 C 29.492188 -15.988281 32.136719 -19.90625 32.136719 -24.777344 C 32.136719 -31.925781 26.578125 -37.0625 19.167969 -37.0625 L 4.234375 -37.0625 L 4.234375 0 L 12.230469 0 L 12.230469 -12.601562 L 17.367188 -12.601562 Z M 12.230469 -29.648438 L 18.636719 -29.648438 C 22.027344 -29.648438 23.984375 -27.585938 23.984375 -24.832031 C 23.984375 -22.027344 22.027344 -20.011719 18.636719 -20.011719 L 12.230469 -20.011719 Z M 12.230469 -29.648438 "/></g></g></g><g fill="#000000" fill-opacity="1"><g transform="translate(180.9079, 230.641384)"><g><path d="M 19.167969 0.847656 C 27.902344 0.847656 34.46875 -5.242188 34.46875 -13.925781 L 34.46875 -37.0625 L 26.421875 -37.0625 L 26.421875 -14.296875 C 26.421875 -9.6875 23.402344 -6.722656 19.167969 -6.722656 C 14.878906 -6.722656 11.859375 -9.6875 11.859375 -14.296875 L 11.859375 -37.0625 L 3.8125 -37.0625 L 3.8125 -13.925781 C 3.8125 -5.242188 10.378906 0.847656 19.167969 0.847656 Z M 19.167969 0.847656 "/></g></g></g><g fill="#000000" fill-opacity="1"><g transform="translate(219.230934, 230.641384)"><g><path d="M 27.691406 -37.0625 L 27.691406 -14.453125 L 11.4375 -37.0625 L 4.234375 -37.0625 L 4.234375 0 L 12.070312 0 L 12.070312 -23.136719 L 28.855469 0 L 35.578125 0 L 35.578125 -37.0625 Z M 27.691406 -37.0625 "/></g></g></g><g fill="#000000" fill-opacity="1"><g transform="translate(259.036084, 230.641384)"><g><path d="M 27.691406 -37.0625 L 27.691406 -14.453125 L 11.4375 -37.0625 L 4.234375 -37.0625 L 4.234375 0 L 12.070312 0 L 12.070312 -23.136719 L 28.855469 0 L 35.578125 0 L 35.578125 -37.0625 Z M 27.691406 -37.0625 "/></g></g></g><g fill="#000000" fill-opacity="1"><g transform="translate(298.841234, 230.641384)"><g><path d="M 12.230469 -7.414062 L 12.230469 -15.035156 L 25.097656 -15.035156 L 25.097656 -22.289062 L 12.230469 -22.289062 L 12.230469 -29.648438 L 26.472656 -29.648438 L 26.472656 -37.0625 L 4.234375 -37.0625 L 4.234375 0 L 27.054688 0 L 27.054688 -7.414062 Z M 12.230469 -7.414062 "/></g></g></g><g fill="#000000" fill-opacity="1"><g transform="translate(328.430437, 230.641384)"><g><path d="M 24.621094 0 L 33.566406 0 L 25.359375 -13.976562 C 29.492188 -15.988281 32.136719 -19.90625 32.136719 -24.777344 C 32.136719 -31.925781 26.578125 -37.0625 19.167969 -37.0625 L 4.234375 -37.0625 L 4.234375 0 L 12.230469 0 L 12.230469 -12.601562 L 17.367188 -12.601562 Z M 12.230469 -29.648438 L 18.636719 -29.648438 C 22.027344 -29.648438 23.984375 -27.585938 23.984375 -24.832031 C 23.984375 -22.027344 22.027344 -20.011719 18.636719 -20.011719 L 12.230469 -20.011719 Z M 12.230469 -29.648438 "/></g></g></g><g fill="#1e2c4b" fill-opacity="1"><g transform="translate(89.639819, 170.358001)"><g><path d="M 5.5 -5.515625 L 1.953125 -5.515625 L 1.953125 -3.765625 L 5.125 -3.765625 L 5.125 -2.78125 L 1.953125 -2.78125 L 1.953125 -0.984375 L 5.609375 -0.984375 L 5.609375 0 L 0.859375 0 L 0.859375 -6.515625 L 5.5 -6.515625 Z M 5.5 -5.515625 "/></g></g></g><g fill="#1e2c4b" fill-opacity="1"><g transform="translate(98.410386, 170.358001)"><g><path d="M 3 -6.546875 C 3.84375 -6.546875 4.597656 -6.328125 5.265625 -5.890625 L 4.8125 -4.921875 C 4.15625 -5.316406 3.519531 -5.515625 2.90625 -5.515625 C 2.582031 -5.515625 2.320312 -5.457031 2.125 -5.34375 C 1.9375 -5.226562 1.84375 -5.0625 1.84375 -4.84375 C 1.84375 -4.625 1.929688 -4.4375 2.109375 -4.28125 C 2.285156 -4.132812 2.503906 -4.023438 2.765625 -3.953125 C 3.023438 -3.878906 3.304688 -3.789062 3.609375 -3.6875 C 3.910156 -3.582031 4.191406 -3.46875 4.453125 -3.34375 C 4.710938 -3.21875 4.925781 -3.023438 5.09375 -2.765625 C 5.269531 -2.515625 5.359375 -2.207031 5.359375 -1.84375 C 5.359375 -1.269531 5.128906 -0.8125 4.671875 -0.46875 C 4.210938 -0.132812 3.625 0.03125 2.90625 0.03125 C 2.40625 0.03125 1.921875 -0.0546875 1.453125 -0.234375 C 0.992188 -0.421875 0.585938 -0.675781 0.234375 -1 L 0.71875 -1.9375 C 1.039062 -1.632812 1.398438 -1.398438 1.796875 -1.234375 C 2.191406 -1.078125 2.566406 -1 2.921875 -1 C 3.304688 -1 3.601562 -1.066406 3.8125 -1.203125 C 4.03125 -1.335938 4.140625 -1.53125 4.140625 -1.78125 C 4.140625 -2.007812 4.050781 -2.195312 3.875 -2.34375 C 3.695312 -2.5 3.476562 -2.613281 3.21875 -2.6875 C 2.957031 -2.757812 2.675781 -2.84375 2.375 -2.9375 C 2.070312 -3.039062 1.789062 -3.148438 1.53125 -3.265625 C 1.269531 -3.378906 1.050781 -3.5625 0.875 -3.8125 C 0.707031 -4.070312 0.625 -4.378906 0.625 -4.734375 C 0.625 -5.285156 0.835938 -5.722656 1.265625 -6.046875 C 1.703125 -6.378906 2.28125 -6.546875 3 -6.546875 Z M 3 -6.546875 "/></g></g></g><g fill="#1e2c4b" fill-opacity="1"><g transform="translate(106.865062, 170.358001)"><g><path d="M 5.296875 -5.515625 L 3.234375 -5.515625 L 3.234375 0 L 2.140625 0 L 2.140625 -5.515625 L 0.078125 -5.515625 L 0.078125 -6.515625 L 5.296875 -6.515625 Z M 5.296875 -5.515625 "/></g></g></g><g fill="#1e2c4b" fill-opacity="1"><g transform="translate(114.920227, 170.358001)"><g><path d="M 0.859375 -6.515625 L 3.53125 -6.515625 C 4.5 -6.515625 5.300781 -6.207031 5.9375 -5.59375 C 6.570312 -4.976562 6.890625 -4.195312 6.890625 -3.25 C 6.890625 -2.3125 6.566406 -1.535156 5.921875 -0.921875 C 5.285156 -0.304688 4.476562 0 3.5 0 L 0.859375 0 Z M 1.953125 -5.515625 L 1.953125 -0.984375 L 3.546875 -0.984375 C 4.191406 -0.984375 4.722656 -1.195312 5.140625 -1.625 C 5.566406 -2.050781 5.78125 -2.59375 5.78125 -3.25 C 5.78125 -3.90625 5.5625 -4.445312 5.125 -4.875 C 4.6875 -5.300781 4.144531 -5.515625 3.5 -5.515625 Z M 1.953125 -5.515625 "/></g></g></g><g fill="#1e2c4b" fill-opacity="1"><g transform="translate(253.90962, 170.358001)"><g><path d="M 2.671875 -6.546875 C 3.296875 -6.546875 3.796875 -6.394531 4.171875 -6.09375 C 4.554688 -5.800781 4.75 -5.410156 4.75 -4.921875 C 4.75 -4.347656 4.351562 -3.632812 3.5625 -2.78125 L 1.875 -0.984375 L 5.046875 -0.984375 L 5.046875 0 L 0.421875 0 L 0.421875 -0.796875 L 2.8125 -3.375 C 3.34375 -3.914062 3.609375 -4.378906 3.609375 -4.765625 C 3.609375 -5.023438 3.507812 -5.226562 3.3125 -5.375 C 3.125 -5.519531 2.859375 -5.59375 2.515625 -5.59375 C 1.929688 -5.59375 1.34375 -5.320312 0.75 -4.78125 L 0.3125 -5.625 C 1.070312 -6.238281 1.859375 -6.546875 2.671875 -6.546875 Z M 2.671875 -6.546875 "/></g></g></g><g fill="#1e2c4b" fill-opacity="1"><g transform="translate(262.048405, 170.358001)"><g><path d="M 3.21875 -6.53125 C 4.101562 -6.53125 4.785156 -6.242188 5.265625 -5.671875 C 5.742188 -5.109375 5.984375 -4.300781 5.984375 -3.25 C 5.984375 -2.195312 5.742188 -1.382812 5.265625 -0.8125 C 4.785156 -0.25 4.101562 0.03125 3.21875 0.03125 C 2.320312 0.03125 1.632812 -0.25 1.15625 -0.8125 C 0.6875 -1.382812 0.453125 -2.195312 0.453125 -3.25 C 0.453125 -4.300781 0.6875 -5.109375 1.15625 -5.671875 C 1.632812 -6.242188 2.320312 -6.53125 3.21875 -6.53125 Z M 3.21875 -5.671875 C 2.125 -5.671875 1.578125 -4.863281 1.578125 -3.25 C 1.578125 -1.644531 2.125 -0.84375 3.21875 -0.84375 C 4.3125 -0.84375 4.859375 -1.644531 4.859375 -3.25 C 4.859375 -4.863281 4.3125 -5.671875 3.21875 -5.671875 Z M 3.21875 -5.671875 "/></g></g></g><g fill="#1e2c4b" fill-opacity="1"><g transform="translate(271.144149, 170.358001)"><g><path d="M 2.671875 -6.546875 C 3.296875 -6.546875 3.796875 -6.394531 4.171875 -6.09375 C 4.554688 -5.800781 4.75 -5.410156 4.75 -4.921875 C 4.75 -4.347656 4.351562 -3.632812 3.5625 -2.78125 L 1.875 -0.984375 L 5.046875 -0.984375 L 5.046875 0 L 0.421875 0 L 0.421875 -0.796875 L 2.8125 -3.375 C 3.34375 -3.914062 3.609375 -4.378906 3.609375 -4.765625 C 3.609375 -5.023438 3.507812 -5.226562 3.3125 -5.375 C 3.125 -5.519531 2.859375 -5.59375 2.515625 -5.59375 C 1.929688 -5.59375 1.34375 -5.320312 0.75 -4.78125 L 0.3125 -5.625 C 1.070312 -6.238281 1.859375 -6.546875 2.671875 -6.546875 Z M 2.671875 -6.546875 "/></g></g></g><g fill="#1e2c4b" fill-opacity="1"><g transform="translate(279.282933, 170.358001)"><g><path d="M 2.4375 -3.796875 L 2.765625 -3.765625 C 3.328125 -3.710938 3.773438 -3.53125 4.109375 -3.21875 C 4.441406 -2.914062 4.609375 -2.515625 4.609375 -2.015625 C 4.609375 -1.398438 4.390625 -0.898438 3.953125 -0.515625 C 3.523438 -0.140625 2.953125 0.046875 2.234375 0.046875 C 1.835938 0.046875 1.441406 -0.015625 1.046875 -0.140625 C 0.648438 -0.265625 0.3125 -0.4375 0.03125 -0.65625 L 0.5 -1.546875 C 0.976562 -1.097656 1.53125 -0.875 2.15625 -0.875 C 2.582031 -0.875 2.914062 -0.972656 3.15625 -1.171875 C 3.40625 -1.378906 3.53125 -1.648438 3.53125 -1.984375 C 3.53125 -2.335938 3.410156 -2.601562 3.171875 -2.78125 C 2.929688 -2.96875 2.585938 -3.0625 2.140625 -3.0625 L 1.25 -3.0625 L 1.25 -3.703125 L 2.9375 -5.515625 L 0.328125 -5.515625 L 0.328125 -6.5 L 4.296875 -6.5 L 4.296875 -5.8125 Z M 2.4375 -3.796875 "/></g></g></g></svg>